<?xml version="1.0" standalone="no"?>
<!DOCTYPE svg PUBLIC "-//W3C//DTD SVG 20010904//EN"
 "http://www.w3.org/TR/2001/REC-SVG-20010904/DTD/svg10.dtd">
<svg version="1.0" xmlns="http://www.w3.org/2000/svg"
 width="576.000000pt" height="576.000000pt" viewBox="0 0 576.000000 576.000000"
 preserveAspectRatio="xMidYMid meet">
<metadata>
Created by potrace 1.11, written by Peter Selinger 2001-2013
</metadata>
<g transform="translate(0.000000,576.000000) scale(0.100000,-0.100000)"
fill="#000000" stroke="none">
<path d="M2230 5712 c-54 -25 -76 -52 -128 -162 -30 -63 -56 -119 -58 -125 -1
-5 -36 -82 -77 -170 -41 -88 -85 -182 -97 -210 -13 -27 -40 -87 -61 -133 -22
-45 -39 -84 -39 -87 0 -2 -23 -51 -51 -107 -27 -57 -49 -103 -48 -103 2 0 -31
-73 -97 -213 -24 -51 -44 -95 -44 -98 0 -2 -18 -41 -39 -86 -70 -148 -122
-262 -144 -313 -11 -27 -24 -52 -28 -55 -3 -3 -10 -16 -14 -30 -4 -14 -34 -81
-66 -149 -33 -67 -59 -127 -59 -132 0 -5 -8 -21 -17 -36 -10 -14 -18 -31 -19
-37 -2 -10 -51 -116 -129 -281 -26 -55 -77 -167 -80 -175 -1 -3 -15 -34 -32
-70 -17 -36 -53 -114 -81 -175 -27 -60 -69 -150 -92 -200 -23 -49 -48 -103
-55 -120 -8 -16 -33 -70 -56 -120 -23 -49 -43 -92 -44 -95 -9 -27 -27 -68 -35
-82 -5 -10 -60 -127 -121 -260 -150 -327 -177 -386 -199 -433 -23 -50 -79
-172 -132 -288 -21 -48 -41 -95 -43 -105 -3 -9 -12 -42 -20 -72 -31 -111 -25
-278 15 -410 54 -173 204 -363 345 -435 17 -9 44 -24 60 -33 57 -34 247 -80
315 -77 74 4 82 12 141 160 13 33 27 62 32 63 4 2 7 9 7 16 0 7 6 26 14 42 8
16 21 45 29 64 8 19 26 61 41 93 14 32 26 64 26 72 0 8 5 15 10 15 6 0 10 5
10 11 0 10 59 151 108 259 92 202 328 393 540 435 12 3 34 8 50 12 43 11 2172
12 2204 1 43 -15 80 -60 112 -135 15 -37 35 -84 44 -103 9 -19 17 -37 17 -40
0 -3 10 -25 21 -50 11 -25 49 -112 84 -195 59 -139 134 -293 149 -305 3 -3 19
-22 35 -44 135 -180 365 -318 608 -363 18 -3 175 -8 348 -10 310 -4 316 -4
343 17 20 16 27 30 27 57 0 37 -1 40 -87 221 -29 63 -53 115 -53 117 0 1 -20
45 -44 96 -24 52 -80 173 -124 269 -118 259 -136 297 -177 385 -20 44 -42 94
-50 110 -7 17 -36 79 -64 138 -28 59 -51 109 -51 111 0 2 -23 53 -51 112 -28
60 -59 127 -69 149 -10 22 -33 72 -51 110 -18 39 -34 72 -34 75 0 3 -20 45
-43 93 -23 49 -42 91 -42 92 0 2 -25 56 -55 120 -30 65 -55 118 -55 120 0 3
-55 123 -115 250 -13 28 -35 75 -48 105 -14 30 -41 89 -60 130 -38 83 -298
648 -342 745 -15 33 -50 107 -76 164 -27 57 -49 105 -49 107 0 2 -18 41 -39
86 -21 46 -50 108 -64 138 -14 30 -46 100 -72 155 -45 95 -67 144 -70 155 -1
3 -18 41 -39 85 -42 87 -78 167 -81 175 -1 5 -21 47 -88 190 -19 41 -58 127
-87 190 -29 63 -67 147 -85 185 -18 39 -43 93 -55 120 -121 263 -122 265 -182
296 -35 18 -64 19 -475 18 -241 0 -445 -3 -453 -7z m502 -1478 c28 -13 39 -29
68 -102 19 -48 38 -90 43 -93 5 -3 8 -8 7 -10 -2 -6 12 -42 76 -192 53 -124
67 -158 99 -232 8 -16 55 -127 105 -245 51 -118 98 -228 105 -245 8 -16 62
-142 120 -280 59 -137 114 -266 122 -285 8 -19 19 -44 23 -55 5 -11 18 -42 30
-70 12 -27 25 -59 30 -70 6 -11 8 -29 6 -40 -3 -11 -5 -25 -5 -30 -1 -6 -13
-18 -28 -27 -25 -14 -96 -16 -683 -15 l-655 2 -55 26 c-71 34 -126 89 -159
158 -21 46 -26 70 -26 136 1 78 10 111 65 230 18 38 111 254 115 265 1 3 7 19
14 35 12 29 22 51 75 168 14 32 26 63 26 70 0 7 4 17 8 22 5 6 18 33 30 60 11
28 31 73 43 100 13 28 24 55 25 60 2 10 66 157 110 253 13 29 24 55 24 58 0 3
9 25 20 48 11 24 41 96 68 159 49 115 63 138 92 150 23 9 27 8 62 -9z"/>
</g>
</svg>
