<?xml version="1.0" standalone="no"?>
<!DOCTYPE svg PUBLIC "-//W3C//DTD SVG 20010904//EN"
 "http://www.w3.org/TR/2001/REC-SVG-20010904/DTD/svg10.dtd">
<svg version="1.0" xmlns="http://www.w3.org/2000/svg"
 width="134.000000pt" height="134.000000pt" viewBox="0 0 134.000000 134.000000"
 preserveAspectRatio="xMidYMid meet">
<metadata>
Created by potrace 1.14, written by Peter Selinger 2001-2017
</metadata>
<g transform="translate(0.000000,134.000000) scale(0.100000,-0.100000)"
fill="#000000" stroke="none">
<path d="M941 1012 c-47 -48 -22 -39 -314 -112 -328 -82 -427 -123 -462 -190
-8 -15 -25 -30 -39 -34 -51 -13 -50 -103 2 -159 34 -36 65 -52 172 -89 71 -25
106 -31 210 -35 138 -6 185 4 176 35 -5 16 2 21 47 31 50 11 56 10 99 -14 43
-24 46 -24 77 -9 26 13 40 14 82 5 63 -14 59 -14 59 9 0 15 -11 23 -46 32 -55
15 -81 48 -37 48 15 0 48 -9 72 -20 54 -25 71 -25 71 -1 0 13 -14 24 -46 36
-31 12 -48 25 -55 43 -9 22 -5 30 31 67 38 39 180 292 180 321 0 7 -14 24 -31
39 -25 20 -42 26 -78 25 -25 -1 -65 2 -88 6 -40 6 -44 4 -82 -34z"/>
</g>
</svg>
