<?xml version="1.0" encoding="UTF-8" standalone="no"?><!DOCTYPE svg PUBLIC "-//W3C//DTD SVG 1.1//EN" "http://www.w3.org/Graphics/SVG/1.1/DTD/svg11.dtd"><svg width="100%" height="100%" viewBox="0 0 743 743" version="1.1" xmlns="http://www.w3.org/2000/svg" xmlns:xlink="http://www.w3.org/1999/xlink" xml:space="preserve" xmlns:serif="http://www.serif.com/" style="fill-rule:evenodd;clip-rule:evenodd;stroke-linejoin:round;stroke-miterlimit:2;"><rect id="Frog-Alonecolor" serif:id="Frog Alonecolor" x="0" y="0" width="742.395" height="742.395" style="fill:none;"/><g><path d="M107.468,369.394c-11.639,-138.731 186.872,-249.117 244.801,-260.944c92.094,-18.797 103.372,-13.159 159.754,-54.51c13.159,-43.233 93.966,-50.744 112.764,0c84.573,9.393 101.107,28.169 99.604,58.265c-1.877,37.584 -55.153,69.101 -86.45,103.37c-34.59,37.883 -83.615,98.857 -123.039,147.519c19.061,5.175 56.834,3.248 77.547,-1.752c2.433,-8.71 10.34,-15.131 19.816,-15.131c11.42,0 20.671,9.251 20.671,20.67c0,11.41 -9.251,20.681 -20.671,20.681c-5.335,0 -10.151,-2.08 -13.819,-5.407c-20.505,3.149 -52.033,4.13 -59.125,5.033c-9.586,1.222 -10.957,13.226 12.922,20.99c17.696,5.77 39.705,4.757 54.449,3.159c3.717,-3.557 8.727,-5.77 14.277,-5.77c11.425,-0 20.676,9.25 20.676,20.67c-0,11.419 -9.251,20.67 -20.676,20.67c-8.451,-0 -15.698,-5.086 -18.897,-12.355c-26.104,0.429 -69.784,-4.251 -83.919,-12.851c-18.02,-10.969 12.461,26.528 34.469,29.084c2.119,-0.727 4.354,-1.211 6.722,-1.211c11.414,-0 20.67,9.25 20.67,20.67c0,11.397 -9.256,20.67 -20.67,20.67c-10.714,-0 -19.42,-8.194 -20.461,-18.622c-16.6,-12.18 -41.173,-38.059 -59.471,-67.615c-20.752,21.561 -44.611,40.844 -72.119,57.296c9.619,28.037 19.42,51.295 26.649,55.744c18.996,11.685 68.562,19.459 91.73,17.575c3.447,-6.168 9.801,-10.56 17.372,-11.144c12.026,-0.936 22.525,8.061 23.455,20.063c0.932,12.026 -8.054,22.543 -20.075,23.479c-7.483,0.572 -14.365,-2.699 -18.733,-8.149c-22.331,-0.54 -61.673,-7.873 -70.152,-8.612c-10.581,-0.925 -14.854,11.662 8.997,25.593c18.924,11.034 44.841,14.854 60.963,16.362c2.952,-1.904 6.349,-3.214 10.099,-3.501c12.026,-0.924 22.525,8.061 23.455,20.075c0.932,12.025 -8.055,22.531 -20.075,23.466c-10.474,0.804 -19.777,-5.913 -22.619,-15.604c-27.51,-4.803 -77.725,-21.012 -91.61,-34.225c-15.874,-15.109 4.642,26.373 26.391,37.66c0.915,-0.187 1.811,-0.418 2.769,-0.495c12.026,-0.935 22.527,8.05 23.457,20.064c0.936,12.026 -8.051,22.531 -20.081,23.466c-12.014,0.936 -22.515,-8.06 -23.451,-20.074c-0.076,-1.014 0.012,-1.994 0.067,-2.986c-19.36,-22.652 -46.769,-71.225 -55.797,-117.082c-2.374,-12.048 -6.008,-26.572 -10.203,-42.099c-17.878,8.127 -37.068,15.218 -57.643,21.165c-8.623,20.231 -26.859,33.853 -47.628,36.902c-42.761,6.288 -133.323,-41.195 -142.067,-36.119c-8.767,5.088 51.228,51.361 82.349,56.294c21.935,3.48 70.995,-0.815 98.063,-3.657c3.232,-9.107 11.839,-15.67 22.053,-15.67c12.978,0 23.494,10.517 23.494,23.489c-0,12.972 -10.516,23.5 -23.494,23.5c-6.784,0 -12.847,-2.918 -17.136,-7.522l-62.191,11.861l68.331,45.721c3.293,-1.751 6.993,-2.841 10.984,-2.841c12.979,0 23.494,10.517 23.494,23.49c0,12.973 -10.517,23.5 -23.494,23.5c-11.382,-0 -20.868,-8.107 -23.021,-18.853c-25.609,-17.091 -77.051,-50.392 -85.167,-47.782c-7.169,2.301 16.628,41.945 33.768,68.815c0.991,-0.121 1.971,-0.296 3,-0.296c12.978,-0 23.495,10.517 23.495,23.488c0,12.973 -10.517,23.501 -23.495,23.501c-12.973,-0 -23.488,-10.528 -23.488,-23.501c-0,-2.842 0.584,-5.517 1.497,-8.028c-15.361,-23.72 -39.346,-59.851 -51.162,-72.945c-18.148,-20.119 -152.87,-144.687 -159.918,-183.56c-7.947,-43.826 15.024,-73.041 86.943,-73.107Zm101.719,-112.513c-15.005,-0 -27.123,12.036 -27.123,26.782c-0,14.746 12.118,26.782 27.123,26.782c15.005,-0 27.123,-12.036 27.123,-26.782c0,-14.746 -12.118,-26.782 -27.123,-26.782Zm186.258,-2.787c-7.584,0 -14.237,2.679 -18.406,6.474c-3.665,3.337 -5.62,7.554 -5.62,12.005c-0,4.451 1.955,8.668 5.62,12.005c4.169,3.795 10.822,6.474 18.406,6.474c7.583,-0 14.237,-2.679 18.405,-6.474c3.666,-3.337 5.621,-7.554 5.621,-12.005c-0,-4.451 -1.955,-8.668 -5.621,-12.005c-4.168,-3.795 -10.822,-6.474 -18.405,-6.474Zm-55.645,-97.626c-9.462,-0 -17.783,3.414 -22.984,8.353c-4.245,4.03 -6.576,9.082 -6.576,14.457c-0,5.375 2.331,10.427 6.576,14.457c5.201,4.939 13.522,8.353 22.984,8.353c9.463,0 17.783,-3.414 22.985,-8.353c4.244,-4.03 6.576,-9.082 6.576,-14.457c0,-5.375 -2.332,-10.427 -6.576,-14.457c-5.202,-4.939 -13.522,-8.353 -22.985,-8.353Zm230.483,6.481c20.757,0 37.59,-16.826 37.59,-37.595c-0,-20.758 -16.833,-37.585 -37.59,-37.585c-20.758,0 -37.59,16.827 -37.59,37.585c-0,20.769 16.832,37.595 37.59,37.595Z" style="fill:#7d9074;fill-rule:nonzero;"/><path d="M411.92,383.149c-0.161,0.098 -7.242,77.928 3.672,71.071c113.639,-71.393 197.322,-226.728 177.484,-203.928c-64.2,73.786 -116.695,94.103 -181.156,132.857Z" style="fill:#526f44;"/><path d="M356.913,412.109c-0,0 -12.208,23.784 -46.72,21.866l7.611,51.894c-0,0 8.529,10.883 22.634,9.45c14.105,-1.434 32.178,-36.382 18.81,-60.835c0,-0 -4.63,-22.106 -2.335,-22.375Z" style="fill:#526f44;"/><path d="M578.001,107.179c10.275,-0 18.608,8.317 18.608,18.598c0,10.27 -8.333,18.62 -18.608,18.62c-10.276,0 -18.609,-8.35 -18.609,-18.62c0,-10.282 8.333,-18.598 18.609,-18.598Z" style="fill-rule:nonzero;"/><path d="M20.159,378.054c14.372,-17.247 38.433,-27.346 71.549,-30.095c5.699,-142.18 198.037,-245.392 256.538,-257.333c18.193,-3.714 33.209,-6.476 46.028,-8.816c48.533,-8.896 61.894,-11.349 99.407,-38.331c11.066,-24.983 39.78,-41.683 71.936,-41.683c29.164,-0 54.129,13.462 67.302,36.116c64.625,8.226 106.955,24.506 104.393,75.845c-1.686,33.809 -31.19,59.848 -59.752,85.035c-10.668,9.407 -21.704,19.142 -30.294,28.549c-26.84,29.391 -62.729,73.209 -97.833,116.517c9.078,-0.296 18.461,-1.148 26.357,-2.431c7.277,-10.566 19.45,-17.053 32.254,-17.053c21.631,-0 39.228,17.598 39.228,39.228c0,9.43 -3.369,18.427 -9.407,25.494c11.094,7.145 17.984,19.506 17.984,32.969c0,21.631 -17.598,39.228 -39.234,39.228c-8.447,0 -16.564,-2.727 -23.234,-7.634c1.176,3.748 1.778,7.691 1.778,11.735c0,20.063 -15.126,36.639 -34.576,38.946c11.757,6.351 20.132,18.359 21.216,32.424c1.17,14.997 -6.328,29.413 -18.756,37.308c7.714,6.896 12.588,16.542 13.395,26.947c1.72,22.199 -14.94,41.66 -37.122,43.388c-1.052,0.081 -2.102,0.125 -3.137,0.125c-13.212,0 -25.799,-6.704 -33.298,-17.61c-2.505,-0.545 -5.141,-1.17 -7.89,-1.864c0.501,2.079 0.841,4.193 1.006,6.35c0.841,10.749 -2.556,21.189 -9.577,29.391c-7.022,8.213 -16.808,13.179 -27.54,13.997c-1.062,0.091 -2.118,0.137 -3.168,0.137c-20.098,-0 -37.03,-14.77 -39.917,-34.561c-20.398,-25.924 -46.023,-73.72 -54.891,-118.742c-1.084,-5.509 -2.517,-11.885 -4.312,-19.222c-9.974,3.886 -20.278,7.476 -30.736,10.701l-1.523,2.569l0.857,-0.012c23.164,-0 42.011,18.848 42.011,42.002c0,23.176 -18.847,42.024 -42.011,42.024c-7.679,-0 -15.161,-2.124 -21.755,-6.136l-7.595,1.443l21.278,14.235c2.635,-0.534 5.345,-0.795 8.061,-0.795c23.165,0 42.012,18.847 42.012,42.002c-0,23.164 -18.847,42.023 -42.012,42.023c-16.638,-0 -31.948,-10.113 -38.552,-25.325c-10.85,-7.18 -20.831,-13.61 -29.839,-19.222c1.772,2.921 3.692,6.032 5.771,9.362c19.7,3.658 34.306,21.04 34.306,41.297c-0,23.164 -18.848,42.024 -42.014,42.024c-23.164,-0 -42.006,-18.86 -42.006,-42.024c-0,-1.397 0.079,-2.805 0.226,-4.238c-20.972,-32.139 -36.672,-54.441 -44.267,-62.859c-3.448,-3.817 -13.03,-13.269 -23.175,-23.266c-83.797,-82.719 -133.382,-136.512 -138.868,-166.776c-4.677,-25.802 -0.168,-47.127 13.398,-63.383Zm551.69,87.34c0,-8.77 -7.139,-15.916 -15.916,-15.916c-1.613,0 -3.305,0.306 -5.174,0.942l-0.955,0.341l-0.999,-0.113c-17.376,-2.023 -43.722,-26.301 -43.246,-34.605l1.056,-4.873l4.194,0c1.801,0 3.857,0.795 6.873,2.625c11.656,7.089 49.919,12.042 76.981,12.042l6.226,-0.08l1.185,2.693c2.545,5.782 8.254,9.519 14.542,9.519c8.782,0 15.922,-7.134 15.922,-15.904c0,-8.782 -7.14,-15.916 -15.922,-15.916c-4.085,-0 -7.992,1.578 -10.985,4.441l-1.091,1.045l-1.505,0.159c-7.658,0.841 -15.001,1.261 -21.824,1.261c-13.053,-0 -24.374,-1.534 -33.638,-4.556c-21.03,-6.84 -22.485,-16.268 -22.131,-20.005c0.46,-4.909 4.47,-8.566 10.213,-9.293c2.375,-0.307 7.455,-0.615 13.947,-1.013c12.291,-0.749 30.885,-1.896 44.165,-3.931l2.089,-0.317l1.563,1.42c2.971,2.692 6.749,4.169 10.627,4.169c8.777,-0 15.918,-7.134 15.918,-15.928c-0,-8.77 -7.14,-15.906 -15.918,-15.906c-7.056,0 -13.314,4.784 -15.235,11.656l-0.698,2.511l-2.54,0.603c-12.343,2.987 -30.321,4.829 -46.914,4.829c-5.425,-0 -12.178,-0.273 -18.836,-1.012c-9.746,12.452 -22.317,27.698 -36.059,42.422c17.071,24.88 37.088,45.183 50.647,55.122l1.602,1.17l0.193,1.965c0.819,8.181 7.583,14.338 15.729,14.338c8.773,0.001 15.914,-7.134 15.914,-15.905Zm-97.55,-35.389c-14.098,12.885 -29.277,24.688 -45.228,35.163c7.79,20.972 12.367,28.856 14.038,31.344c12.32,6.998 46.589,13.962 70.431,14.314c6.396,-6.168 14.615,-10.043 23.449,-11.043c-8.312,-4.578 -14.826,-12.134 -18.048,-21.574c-14.558,-11.94 -30.93,-29.64 -44.642,-48.204Zm-444.587,7.283c5.243,28.914 91.062,113.608 132.302,154.315c11.781,11.621 20.296,20.028 24.101,24.254c11.503,12.748 33.981,46.409 50.811,72.392l1.198,1.862l-0.749,2.07c-0.818,2.238 -1.21,4.317 -1.21,6.395c-0,10.304 8.377,18.688 18.688,18.688c10.304,-0 18.695,-8.384 18.695,-18.688c-0,-10.306 -8.39,-18.689 -18.695,-18.689c-0.569,-0 -1.12,0.09 -2.42,0.261l-2.778,0.329l-1.505,-2.362c-38.468,-60.327 -35.973,-67.234 -34.776,-70.552c0.676,-1.874 2.068,-3.226 3.903,-3.816l1.738,-0.364l0.698,-0c8.906,-0 37.594,16.132 85.263,47.943l1.534,1.021l0.357,1.807c1.738,8.691 9.44,14.985 18.315,14.985c10.31,0 18.695,-8.383 18.695,-18.699c-0,-10.294 -8.384,-18.678 -18.695,-18.678c-2.948,-0 -5.891,0.76 -8.73,2.273l-2.347,1.249l-78.503,-52.531l74.294,-14.167l1.67,1.795c3.601,3.863 8.441,5.988 13.627,5.988c10.304,0 18.695,-8.384 18.695,-18.699c0,-10.293 -8.389,-18.678 -18.695,-18.678c-7.832,-0 -14.883,5.01 -17.529,12.474l-0.938,2.635l-2.782,0.284c-5.476,0.58 -10.861,1.42 -16.355,2.285c-10.969,1.715 -22.307,3.477 -35.764,3.477c-14.78,0 -29.855,-2.205 -46.107,-6.727c-41.258,-11.519 -83.763,-39.751 -85.382,-52.418c-0.358,-2.806 0.858,-5.317 3.255,-6.704c1.079,-0.624 2.313,-0.953 3.652,-0.953c3.999,-0 8.583,2.839 16.19,7.52c16.899,10.407 48.351,29.788 98.275,29.788c7.641,-0 15.554,-0.455 23.512,-1.364c18.775,-2.112 35.368,-15.018 43.314,-33.662l0.83,-1.942l0.267,-0.081c0.476,-3.646 0.796,-7.19 0.796,-10.565c-0.069,-19.495 -7.437,-35.048 -21.341,-50.692c-13.906,-15.552 -34.424,-30.549 -59.161,-47.022l8.623,-12.929l0,-0.012c25.017,16.701 46.471,32.163 62.115,49.601c15.639,17.336 25.374,37.287 25.307,61.052c-0,1.761 -0.136,3.58 -0.244,5.374c9.747,-3.18 19.206,-6.668 28.419,-10.44c-4.265,-22.324 -5.596,-41.387 -5.596,-56.452c0,-24.152 3.403,-38.002 3.535,-38.524l15.087,3.783l-0.01,0.046c-0.25,1.033 -4.227,13.463 -3.062,34.695c1.078,19.791 8.213,48.807 8.213,48.807l1.364,5.045c4.698,17.382 8.004,31.037 10.116,41.761c8.334,42.297 34.021,89.932 53.97,113.266l1.138,1.853l-0.114,1.784l-0.041,1.839c0.693,8.817 8.146,15.724 16.974,15.724l1.346,-0.033c4.55,-0.363 8.685,-2.466 11.645,-5.919c2.964,-3.466 4.402,-7.874 4.043,-12.418c-0.681,-8.828 -8.14,-15.724 -16.972,-15.724l-1.335,0.035c-0.54,0.046 -1.04,0.181 -2.199,0.419l-1.54,0.308l-1.391,-0.704c-17.018,-8.84 -35.605,-37.128 -33.754,-44.682l1.575,-4.022l3.482,0c2.232,0 4.499,1.285 7.815,4.442c12.838,12.225 61.427,27.924 87.91,32.561l2.727,0.453l0.772,2.658c2.113,7.203 8.833,12.236 16.342,12.236l1.325,-0.045c9.373,-0.739 16.41,-8.953 15.683,-18.337c-0.681,-8.828 -8.145,-15.734 -16.991,-15.734l-1.34,0.046c-2.716,0.215 -5.362,1.136 -7.873,2.749l-1.289,0.841l-1.528,-0.136c-26.255,-2.466 -47.068,-8.089 -61.859,-16.701c-20.268,-11.849 -20.069,-21.949 -19.041,-25.744c1.284,-4.725 5.737,-7.793 11.355,-7.793l1.448,0.069c2.608,0.227 8.14,1.066 15.19,2.159c15.394,2.362 38.649,5.941 53.617,6.317l2.068,0.035l1.288,1.623c3.267,4.068 8.13,6.408 13.316,6.408l1.318,-0.034c9.372,-0.739 16.409,-8.976 15.683,-18.349c-0.681,-8.825 -8.134,-15.723 -16.973,-15.723l-1.352,0.046c-5.693,0.432 -10.771,3.693 -13.57,8.713l-1.153,2.068l-2.37,0.195c-2.392,0.181 -5.073,0.282 -7.963,0.282c-26.199,0 -67.575,-7.487 -85.048,-18.233c-4.617,-2.841 -12.554,-11.86 -28.116,-57.236l-1.17,-3.408c-0,0 -3.279,-26.005 -0.728,-59.564c1.705,-22.346 2.976,-35.264 3.101,-35.763l15.127,3.579l-0.011,0.044c-0.217,0.943 -2.67,12.429 -2.67,32.14c0,12.575 1.091,28.651 4.317,47.385c19.586,-13.258 37.757,-28.435 54.095,-45.42l3.965,-4.112l26.476,-31.287l13.985,-17.268c37.599,-46.444 80.213,-99.078 111.558,-133.399c9.44,-10.339 20.955,-20.494 32.089,-30.322c24.92,-21.983 50.685,-44.694 51.885,-68.698c1.102,-22.168 -5.266,-42.879 -94.14,-52.74l-2.727,-0.308l-0.95,-2.578c-7.389,-19.939 -26.305,-31.857 -50.595,-31.857c-24.97,0 -46.368,13.009 -52.031,31.606l-0.437,1.431l-1.193,0.863c-45.289,33.229 -62.472,36.376 -113.471,45.716c-12.696,2.341 -27.567,5.055 -45.578,8.738c-50.328,10.279 -248.926,116.355 -237.525,252.243l0.402,4.794l-4.822,0.021c-35.962,0.023 -60.489,7.59 -72.902,22.45c-8.932,10.703 -11.738,25.608 -8.348,44.308Z" style="fill-rule:nonzero;"/><path d="M209.187,256.881c-15.005,-0 -27.123,12.036 -27.123,26.782c-0,14.746 12.118,26.782 27.123,26.782c15.005,-0 27.123,-12.036 27.123,-26.782c0,-14.746 -12.118,-26.782 -27.123,-26.782Zm0,14.685c6.83,0 12.438,5.385 12.438,12.097c0,6.712 -5.608,12.096 -12.438,12.096c-6.83,0 -12.438,-5.384 -12.438,-12.096c-0,-6.712 5.608,-12.097 12.438,-12.097Z"/><path d="M339.8,156.468c-9.462,-0 -17.783,3.414 -22.984,8.353c-4.245,4.03 -6.576,9.082 -6.576,14.457c-0,5.375 2.331,10.427 6.576,14.457c5.201,4.939 13.522,8.353 22.984,8.353c9.463,0 17.783,-3.414 22.985,-8.353c4.244,-4.03 6.576,-9.082 6.576,-14.457c0,-5.375 -2.332,-10.427 -6.576,-14.457c-5.202,-4.939 -13.522,-8.353 -22.985,-8.353Zm0,14.685c4.483,0 8.572,1.169 11.513,3.216c1.88,1.309 3.363,2.913 3.363,4.909c-0,1.996 -1.483,3.6 -3.363,4.909c-2.941,2.047 -7.03,3.216 -11.513,3.216c-4.482,-0 -8.571,-1.169 -11.512,-3.216c-1.88,-1.309 -3.363,-2.913 -3.363,-4.909c0,-1.996 1.483,-3.6 3.363,-4.909c2.941,-2.047 7.03,-3.216 11.512,-3.216Z"/><path d="M395.445,254.094c-7.584,0 -14.237,2.679 -18.406,6.474c-3.665,3.337 -5.62,7.554 -5.62,12.005c-0,4.451 1.955,8.668 5.62,12.005c4.169,3.795 10.822,6.474 18.406,6.474c7.583,-0 14.237,-2.679 18.405,-6.474c3.666,-3.337 5.621,-7.554 5.621,-12.005c-0,-4.451 -1.955,-8.668 -5.621,-12.005c-4.168,-3.795 -10.822,-6.474 -18.405,-6.474Zm-0,14.686c3.002,-0 5.749,0.713 7.718,2.027c0.781,0.522 1.622,0.971 1.622,1.766c0,0.795 -0.841,1.244 -1.622,1.766c-1.969,1.314 -4.716,2.027 -7.718,2.027c-3.002,0 -5.749,-0.713 -7.718,-2.027c-0.782,-0.522 -1.623,-0.971 -1.623,-1.766c0,-0.795 0.841,-1.244 1.623,-1.766c1.969,-1.314 4.716,-2.027 7.718,-2.027Z"/></g></svg>